<mxfile host="app.diagrams.net" modified="2022-03-31T19:23:11.290Z" agent="5.0 (Windows NT 10.0; Win64; x64) AppleWebKit/537.36 (KHTML, like Gecko) Chrome/99.0.4844.84 Safari/537.36" etag="-1zC-N3yOK3gGljEgaar" version="16.6.4" type="github">
  <diagram id="DhTkyQSxUMTwu6wX2p3q" name="Page-1">
    <mxGraphModel dx="1278" dy="579" grid="1" gridSize="10" guides="1" tooltips="1" connect="1" arrows="1" fold="1" page="1" pageScale="1" pageWidth="1169" pageHeight="1654" math="0" shadow="0">
      <root>
        <mxCell id="0" />
        <mxCell id="1" parent="0" />
        <mxCell id="XGX5eF3X8VLQE5c7TFZi-1" value="Product&#xa;(Software)" style="shape=module;align=left;spacingLeft=20;align=center;verticalAlign=top;" vertex="1" parent="1">
          <mxGeometry x="540" y="110" width="100" height="50" as="geometry" />
        </mxCell>
        <mxCell id="XGX5eF3X8VLQE5c7TFZi-2" value="Customer" style="shape=module;align=left;spacingLeft=20;align=center;verticalAlign=top;" vertex="1" parent="1">
          <mxGeometry x="740" y="330" width="100" height="50" as="geometry" />
        </mxCell>
        <mxCell id="XGX5eF3X8VLQE5c7TFZi-3" value="Distributor&#xa;" style="shape=module;align=left;spacingLeft=20;align=center;verticalAlign=top;" vertex="1" parent="1">
          <mxGeometry x="740" y="260" width="100" height="50" as="geometry" />
        </mxCell>
        <mxCell id="XGX5eF3X8VLQE5c7TFZi-4" value="Shopping &#xa;Basket" style="shape=module;align=left;spacingLeft=20;align=center;verticalAlign=top;" vertex="1" parent="1">
          <mxGeometry x="140" y="210" width="100" height="50" as="geometry" />
        </mxCell>
        <mxCell id="XGX5eF3X8VLQE5c7TFZi-5" value="" style="rounded=0;orthogonalLoop=1;jettySize=auto;html=1;endArrow=none;endFill=0;sketch=0;sourcePerimeterSpacing=0;targetPerimeterSpacing=0;" edge="1" target="XGX5eF3X8VLQE5c7TFZi-7" parent="1" source="XGX5eF3X8VLQE5c7TFZi-1">
          <mxGeometry relative="1" as="geometry">
            <mxPoint x="280" y="185" as="sourcePoint" />
          </mxGeometry>
        </mxCell>
        <mxCell id="XGX5eF3X8VLQE5c7TFZi-6" value="" style="rounded=0;orthogonalLoop=1;jettySize=auto;html=1;endArrow=halfCircle;endFill=0;entryX=0.5;entryY=0.5;endSize=6;strokeWidth=1;sketch=0;" edge="1" target="XGX5eF3X8VLQE5c7TFZi-7" parent="1" source="XGX5eF3X8VLQE5c7TFZi-4">
          <mxGeometry relative="1" as="geometry">
            <mxPoint x="320" y="185" as="sourcePoint" />
          </mxGeometry>
        </mxCell>
        <mxCell id="XGX5eF3X8VLQE5c7TFZi-7" value="" style="ellipse;whiteSpace=wrap;html=1;align=center;aspect=fixed;resizable=0;points=[];outlineConnect=0;sketch=0;" vertex="1" parent="1">
          <mxGeometry x="380" y="180" width="10" height="10" as="geometry" />
        </mxCell>
        <mxCell id="XGX5eF3X8VLQE5c7TFZi-8" value="Software Id" style="text;html=1;align=center;verticalAlign=middle;resizable=0;points=[];autosize=1;strokeColor=none;fillColor=none;" vertex="1" parent="1">
          <mxGeometry x="340" y="150" width="80" height="20" as="geometry" />
        </mxCell>
        <mxCell id="XGX5eF3X8VLQE5c7TFZi-9" value="" style="rounded=0;orthogonalLoop=1;jettySize=auto;html=1;endArrow=none;endFill=0;sketch=0;sourcePerimeterSpacing=0;targetPerimeterSpacing=0;" edge="1" target="XGX5eF3X8VLQE5c7TFZi-11" parent="1" source="XGX5eF3X8VLQE5c7TFZi-2">
          <mxGeometry relative="1" as="geometry">
            <mxPoint x="640" y="330" as="sourcePoint" />
          </mxGeometry>
        </mxCell>
        <mxCell id="XGX5eF3X8VLQE5c7TFZi-10" value="" style="rounded=0;orthogonalLoop=1;jettySize=auto;html=1;endArrow=halfCircle;endFill=0;entryX=0.5;entryY=0.5;endSize=6;strokeWidth=1;sketch=0;" edge="1" target="XGX5eF3X8VLQE5c7TFZi-11" parent="1" source="XGX5eF3X8VLQE5c7TFZi-17">
          <mxGeometry relative="1" as="geometry">
            <mxPoint x="560" y="270" as="sourcePoint" />
          </mxGeometry>
        </mxCell>
        <mxCell id="XGX5eF3X8VLQE5c7TFZi-11" value="" style="ellipse;whiteSpace=wrap;html=1;align=center;aspect=fixed;resizable=0;points=[];outlineConnect=0;sketch=0;" vertex="1" parent="1">
          <mxGeometry x="650" y="350" width="10" height="10" as="geometry" />
        </mxCell>
        <mxCell id="XGX5eF3X8VLQE5c7TFZi-12" value="Customer Details" style="text;html=1;align=center;verticalAlign=middle;resizable=0;points=[];autosize=1;strokeColor=none;fillColor=none;" vertex="1" parent="1">
          <mxGeometry x="590" y="370" width="110" height="20" as="geometry" />
        </mxCell>
        <mxCell id="XGX5eF3X8VLQE5c7TFZi-13" value="" style="rounded=0;orthogonalLoop=1;jettySize=auto;html=1;endArrow=none;endFill=0;sketch=0;sourcePerimeterSpacing=0;targetPerimeterSpacing=0;" edge="1" target="XGX5eF3X8VLQE5c7TFZi-15" parent="1" source="XGX5eF3X8VLQE5c7TFZi-3">
          <mxGeometry relative="1" as="geometry">
            <mxPoint x="820" y="155" as="sourcePoint" />
          </mxGeometry>
        </mxCell>
        <mxCell id="XGX5eF3X8VLQE5c7TFZi-14" value="" style="rounded=0;orthogonalLoop=1;jettySize=auto;html=1;endArrow=halfCircle;endFill=0;entryX=0.5;entryY=0.5;endSize=6;strokeWidth=1;sketch=0;" edge="1" target="XGX5eF3X8VLQE5c7TFZi-15" parent="1" source="XGX5eF3X8VLQE5c7TFZi-17">
          <mxGeometry relative="1" as="geometry">
            <mxPoint x="830" y="250" as="sourcePoint" />
          </mxGeometry>
        </mxCell>
        <mxCell id="XGX5eF3X8VLQE5c7TFZi-15" value="" style="ellipse;whiteSpace=wrap;html=1;align=center;aspect=fixed;resizable=0;points=[];outlineConnect=0;sketch=0;" vertex="1" parent="1">
          <mxGeometry x="660" y="280" width="10" height="10" as="geometry" />
        </mxCell>
        <mxCell id="XGX5eF3X8VLQE5c7TFZi-16" value="Distributor Details" style="text;html=1;align=center;verticalAlign=middle;resizable=0;points=[];autosize=1;strokeColor=none;fillColor=none;" vertex="1" parent="1">
          <mxGeometry x="610" y="250" width="110" height="20" as="geometry" />
        </mxCell>
        <mxCell id="XGX5eF3X8VLQE5c7TFZi-17" value="Payment" style="shape=module;align=left;spacingLeft=20;align=center;verticalAlign=top;" vertex="1" parent="1">
          <mxGeometry x="460" y="280" width="100" height="50" as="geometry" />
        </mxCell>
        <mxCell id="XGX5eF3X8VLQE5c7TFZi-18" value="" style="rounded=0;orthogonalLoop=1;jettySize=auto;html=1;endArrow=none;endFill=0;sketch=0;sourcePerimeterSpacing=0;targetPerimeterSpacing=0;" edge="1" target="XGX5eF3X8VLQE5c7TFZi-20" parent="1" source="XGX5eF3X8VLQE5c7TFZi-17">
          <mxGeometry relative="1" as="geometry">
            <mxPoint x="280" y="315" as="sourcePoint" />
          </mxGeometry>
        </mxCell>
        <mxCell id="XGX5eF3X8VLQE5c7TFZi-19" value="" style="rounded=0;orthogonalLoop=1;jettySize=auto;html=1;endArrow=halfCircle;endFill=0;entryX=0.5;entryY=0.5;endSize=6;strokeWidth=1;sketch=0;" edge="1" target="XGX5eF3X8VLQE5c7TFZi-20" parent="1" source="XGX5eF3X8VLQE5c7TFZi-4">
          <mxGeometry relative="1" as="geometry">
            <mxPoint x="320" y="315" as="sourcePoint" />
          </mxGeometry>
        </mxCell>
        <mxCell id="XGX5eF3X8VLQE5c7TFZi-20" value="" style="ellipse;whiteSpace=wrap;html=1;align=center;aspect=fixed;resizable=0;points=[];outlineConnect=0;sketch=0;" vertex="1" parent="1">
          <mxGeometry x="340" y="270" width="10" height="10" as="geometry" />
        </mxCell>
        <mxCell id="XGX5eF3X8VLQE5c7TFZi-21" value="Software&#xa;Type    " style="shape=module;align=left;spacingLeft=20;align=center;verticalAlign=top;" vertex="1" parent="1">
          <mxGeometry x="740" y="50" width="100" height="50" as="geometry" />
        </mxCell>
        <mxCell id="XGX5eF3X8VLQE5c7TFZi-22" value="Developer&#xa;" style="shape=module;align=left;spacingLeft=20;align=center;verticalAlign=top;" vertex="1" parent="1">
          <mxGeometry x="740" y="135" width="100" height="50" as="geometry" />
        </mxCell>
        <mxCell id="XGX5eF3X8VLQE5c7TFZi-23" value="Organization" style="shape=module;align=left;spacingLeft=20;align=center;verticalAlign=top;" vertex="1" parent="1">
          <mxGeometry x="930" y="190" width="100" height="50" as="geometry" />
        </mxCell>
        <mxCell id="XGX5eF3X8VLQE5c7TFZi-24" value="Payment Details" style="text;html=1;align=center;verticalAlign=middle;resizable=0;points=[];autosize=1;strokeColor=none;fillColor=none;" vertex="1" parent="1">
          <mxGeometry x="295" y="290" width="100" height="20" as="geometry" />
        </mxCell>
      </root>
    </mxGraphModel>
  </diagram>
</mxfile>
